<svg width="118" height="80" viewBox="0 0 118 80" fill="none" xmlns="http://www.w3.org/2000/svg">
<mask id="path-1-outside-1_628_2" maskUnits="userSpaceOnUse" x="-0.419922" y="-0.227051" width="118" height="81" fill="black">
<rect fill="white" x="-0.419922" y="-0.227051" width="118" height="81"/>
<path d="M29.6028 75.932C24.2164 75.9093 19.6142 74.4889 15.796 71.6707C11.9778 68.8525 9.05735 64.7502 7.03462 59.3639C5.0119 53.9775 4.00053 47.4889 4.00053 39.8979C4.00053 32.3298 5.0119 25.8639 7.03462 20.5002C9.08008 15.1366 12.0119 11.0457 15.8301 8.2275C19.671 5.40931 24.2619 4.00022 29.6028 4.00022C34.9437 4.00022 39.5233 5.42067 43.3414 8.26158C47.1596 11.0798 50.0801 15.1707 52.1028 20.5343C54.1483 25.8752 55.171 32.3298 55.171 39.8979C55.171 47.5116 54.1596 54.0116 52.1369 59.3979C50.1142 64.7616 47.1937 68.8639 43.3755 71.7048C39.5574 74.5229 34.9664 75.932 29.6028 75.932ZM29.6028 66.8298C34.3301 66.8298 38.0233 64.5229 40.6824 59.9093C43.3642 55.2957 44.7051 48.6252 44.7051 39.8979C44.7051 34.1025 44.0914 29.2048 42.8642 25.2048C41.6596 21.182 39.921 18.1366 37.6483 16.0684C35.3983 13.9775 32.7164 12.932 29.6028 12.932C24.8983 12.932 21.2051 15.2502 18.5233 19.8866C15.8414 24.5229 14.4892 31.1934 14.4664 39.8979C14.4664 45.7161 15.0687 50.6366 16.2733 54.6593C17.5005 58.6593 19.2392 61.6934 21.4892 63.7616C23.7392 65.807 26.4437 66.8298 29.6028 66.8298ZM67.2647 74.7729V67.1366L90.8897 42.6593C93.4125 40.0002 95.492 37.6707 97.1284 35.6707C98.7875 33.6479 100.026 31.7275 100.844 29.9093C101.662 28.0911 102.072 26.1593 102.072 24.1139C102.072 21.7957 101.526 19.7957 100.435 18.1139C99.3443 16.4093 97.8556 15.1025 95.9693 14.1934C94.0829 13.2616 91.9579 12.7957 89.5943 12.7957C87.0943 12.7957 84.9125 13.307 83.0488 14.3298C81.1852 15.3525 79.7534 16.7957 78.7534 18.6593C77.7534 20.5229 77.2534 22.7048 77.2534 25.2048H67.1966C67.1966 20.9548 68.1738 17.2389 70.1284 14.057C72.0829 10.8752 74.7647 8.40931 78.1738 6.65931C81.5829 4.88658 85.4579 4.00022 89.7988 4.00022C94.1852 4.00022 98.0488 4.87522 101.39 6.62522C104.753 8.35249 107.378 10.7161 109.265 13.7161C111.151 16.6934 112.094 20.057 112.094 23.807C112.094 26.3979 111.606 28.932 110.628 31.4093C109.674 33.8866 108.003 36.6479 105.617 39.6934C103.231 42.7161 99.9125 46.3866 95.6625 50.7048L81.7875 65.2275V65.7389H113.219V74.7729H67.2647Z"/>
</mask>
<path d="M29.6028 75.932L29.5859 79.932L29.5944 79.932H29.6028V75.932ZM7.03462 59.3639L10.7793 57.9576V57.9576L7.03462 59.3639ZM7.03462 20.5002L3.29717 19.0749L3.29454 19.0818L3.29192 19.0888L7.03462 20.5002ZM15.8301 8.22749L13.4638 5.00247L13.4547 5.0092L15.8301 8.22749ZM43.3414 8.26158L40.9537 11.4707L40.9599 11.4753L40.966 11.4799L43.3414 8.26158ZM52.1028 20.5343L48.3601 21.9458L48.3637 21.9553L48.3674 21.9649L52.1028 20.5343ZM52.1369 59.3979L55.8796 60.8094L55.8816 60.8042L52.1369 59.3979ZM43.3755 71.7048L45.7509 74.9231L45.7571 74.9185L45.7633 74.9139L43.3755 71.7048ZM40.6824 59.9093L37.2242 57.8991L37.2204 57.9055L37.2168 57.9119L40.6824 59.9093ZM42.8642 25.2048L39.0323 26.3522L39.0361 26.3651L39.0401 26.3781L42.8642 25.2048ZM37.6483 16.0684L34.9253 18.9985L34.9406 19.0128L34.9561 19.0268L37.6483 16.0684ZM18.5233 19.8866L15.0608 17.8838V17.8838L18.5233 19.8866ZM14.4664 39.8979L10.4664 39.8875V39.8979H14.4664ZM16.2733 54.6593L12.4414 55.8067L12.4452 55.8197L12.4492 55.8326L16.2733 54.6593ZM21.4892 63.7616L18.7822 66.7065L18.7903 66.7139L18.7985 66.7213L21.4892 63.7616ZM29.6028 75.932L29.6197 71.9321C24.9629 71.9124 21.216 70.6996 18.1714 68.4524L15.796 71.6707L13.4206 74.889C18.0124 78.2781 23.4699 79.9062 29.5859 79.932L29.6028 75.932ZM15.796 71.6707L18.1714 68.4524C15.0962 66.1826 12.5885 62.7754 10.7793 57.9576L7.03462 59.3639L3.28996 60.7701C5.5262 66.725 8.85941 71.5224 13.4206 74.889L15.796 71.6707ZM7.03462 59.3639L10.7793 57.9576C8.96975 53.139 8.00053 47.1534 8.00053 39.8979H4.00053H0.000532866C0.000532866 47.8243 1.05404 54.816 3.28996 60.7701L7.03462 59.3639ZM4.00053 39.8979H8.00053C8.00053 32.6661 8.96953 26.7054 10.7773 21.9117L7.03462 20.5002L3.29192 19.0888C1.05427 25.0223 0.000532866 31.9934 0.000532866 39.8979H4.00053ZM7.03462 20.5002L10.7721 21.9255C12.6023 17.1263 15.1221 13.7216 18.2055 11.4458L15.8301 8.22749L13.4547 5.0092C8.90166 8.36975 5.55789 13.1468 3.29717 19.0749L7.03462 20.5002ZM15.8301 8.22749L18.1964 11.4525C21.2689 9.19813 25.0051 8.00022 29.6028 8.00022V4.00022V0.000221252C23.5187 0.000221252 18.0731 1.62049 13.4638 5.00248L15.8301 8.22749ZM29.6028 4.00022V8.00022C34.1937 8.00022 37.9092 9.20547 40.9537 11.4707L43.3414 8.26158L45.7292 5.05244C41.1373 1.63588 35.6937 0.000221252 29.6028 0.000221252V4.00022ZM43.3414 8.26158L40.966 11.4799C44.0453 13.7527 46.5523 17.1521 48.3601 21.9458L52.1028 20.5343L55.8455 19.1229C53.6078 13.1892 50.274 8.40687 45.7169 5.04329L43.3414 8.26158ZM52.1028 20.5343L48.3674 21.9649C50.1915 26.7279 51.171 32.6696 51.171 39.8979H55.171H59.171C59.171 31.99 58.105 25.0226 55.8382 19.1037L52.1028 20.5343ZM55.171 39.8979H51.171C51.171 47.1777 50.2013 53.1742 48.3922 57.9917L52.1369 59.3979L55.8816 60.8042C58.1179 54.8489 59.171 47.8454 59.171 39.8979H55.171ZM52.1369 59.3979L48.3942 57.9865C46.5859 62.7815 44.0759 66.1979 40.9878 68.4956L43.3755 71.7048L45.7633 74.9139C50.3115 71.5298 53.6424 66.7416 55.8796 60.8094L52.1369 59.3979ZM43.3755 71.7048L41.0001 68.4865C37.9579 70.7319 34.2278 71.932 29.6028 71.932V75.932V79.932C35.7051 79.932 41.1568 78.314 45.7509 74.9231L43.3755 71.7048ZM29.6028 66.8298V70.8298C35.9655 70.8298 40.8835 67.5707 44.1479 61.9067L40.6824 59.9093L37.2168 57.9119C35.163 61.4752 32.6947 62.8298 29.6028 62.8298V66.8298ZM40.6824 59.9093L44.1406 61.9195C47.3356 56.423 48.7051 48.93 48.7051 39.8979H44.7051H40.7051C40.7051 48.3204 39.3928 54.1684 37.2242 57.8991L40.6824 59.9093ZM44.7051 39.8979H48.7051C48.7051 33.8459 48.0673 28.5264 46.6882 24.0315L42.8642 25.2048L39.0401 26.3781C40.1155 29.8831 40.7051 34.3591 40.7051 39.8979H44.7051ZM42.8642 25.2048L46.6961 24.0574C45.3566 19.584 43.3127 15.8148 40.3404 13.11L37.6483 16.0684L34.9561 19.0268C36.5293 20.4584 37.9626 22.78 39.0323 26.3522L42.8642 25.2048ZM37.6483 16.0684L40.3712 13.1383C37.37 10.3493 33.7113 8.93204 29.6028 8.93204V12.932V16.932C31.7216 16.932 33.4265 17.6057 34.9253 18.9985L37.6483 16.0684ZM29.6028 12.932V8.93204C23.248 8.93204 18.3387 12.2168 15.0608 17.8838L18.5233 19.8866L21.9857 21.8894C24.0714 18.2836 26.5486 16.932 29.6028 16.932V12.932ZM18.5233 19.8866L15.0608 17.8838C11.8741 23.393 10.49 30.8752 10.4665 39.8875L14.4664 39.8979L18.4664 39.9084C18.4884 31.5116 19.8088 25.6529 21.9857 21.8894L18.5233 19.8866ZM14.4664 39.8979H10.4664C10.4664 45.9668 11.0917 51.2994 12.4414 55.8067L16.2733 54.6593L20.1052 53.5119C19.0457 49.9738 18.4664 45.4654 18.4664 39.8979H14.4664ZM16.2733 54.6593L12.4492 55.8326C13.8111 60.2715 15.8507 64.0119 18.7822 66.7065L21.4892 63.7616L24.1961 60.8167C22.6276 59.3749 21.1899 57.0472 20.0973 53.486L16.2733 54.6593ZM21.4892 63.7616L18.7985 66.7213C21.8157 69.4643 25.4912 70.8298 29.6028 70.8298V66.8298V62.8298C27.3962 62.8298 25.6627 62.1498 24.1799 60.8018L21.4892 63.7616ZM67.2647 74.7729H63.2647V78.7729H67.2647V74.7729ZM67.2647 67.1366L64.3867 64.3587L63.2647 65.5211V67.1366H67.2647ZM90.8897 42.6593L93.7678 45.4372L93.7798 45.4248L93.7916 45.4124L90.8897 42.6593ZM97.1284 35.6707L94.0356 33.1339L94.0325 33.1377L97.1284 35.6707ZM100.435 18.1139L97.0661 20.2701L97.0727 20.2804L97.0793 20.2906L100.435 18.1139ZM95.9693 14.1934L94.1977 17.7797L94.2152 17.7883L94.2327 17.7968L95.9693 14.1934ZM77.2534 25.2048V29.2048H81.2534V25.2048H77.2534ZM67.1966 25.2048H63.1966V29.2048H67.1966V25.2048ZM70.1284 14.057L73.5367 16.1507L73.5367 16.1507L70.1284 14.057ZM78.1738 6.65931L80.0005 10.2178L80.0099 10.213L80.0192 10.2082L78.1738 6.65931ZM101.39 6.62522L99.5337 10.1685L99.5481 10.1761L99.5625 10.1835L101.39 6.62522ZM109.265 13.7161L105.878 15.8453L105.886 15.8569L109.265 13.7161ZM110.628 31.4093L106.907 29.9414L106.902 29.9562L106.896 29.9711L110.628 31.4093ZM105.617 39.6934L108.757 42.172L108.761 42.1663L108.766 42.1605L105.617 39.6934ZM95.6625 50.7048L92.8116 47.8989L92.7908 47.9201L92.7703 47.9416L95.6625 50.7048ZM81.7875 65.2275L78.8953 62.4643L77.7875 63.6238V65.2275H81.7875ZM81.7875 65.7389H77.7875V69.7389H81.7875V65.7389ZM113.219 65.7389H117.219V61.7389H113.219V65.7389ZM113.219 74.7729V78.7729H117.219V74.7729H113.219ZM67.2647 74.7729H71.2647V67.1366H67.2647H63.2647V74.7729H67.2647ZM67.2647 67.1366L70.1428 69.9145L93.7678 45.4372L90.8897 42.6593L88.0117 39.8814L64.3867 64.3587L67.2647 67.1366ZM90.8897 42.6593L93.7916 45.4124C96.3563 42.709 98.5063 40.3033 100.224 38.2036L97.1284 35.6707L94.0325 33.1377C92.4777 35.0381 90.4686 37.2914 87.9879 39.9063L90.8897 42.6593ZM97.1284 35.6707L100.221 38.2074C102.039 35.9916 103.492 33.7726 104.492 31.5508L100.844 29.9093L97.1966 28.2679C96.56 29.6824 95.5364 31.3043 94.0356 33.1339L97.1284 35.6707ZM100.844 29.9093L104.492 31.5508C105.548 29.2029 106.072 26.7102 106.072 24.1139H102.072H98.0716C98.0716 25.6085 97.7764 26.9793 97.1966 28.2679L100.844 29.9093ZM102.072 24.1139H106.072C106.072 21.1468 105.365 18.3636 103.791 15.9371L100.435 18.1139L97.0793 20.2906C97.6872 21.2278 98.0716 22.4446 98.0716 24.1139H102.072ZM100.435 18.1139L103.804 15.9576C102.299 13.6064 100.236 11.8092 97.7059 10.59L95.9693 14.1934L94.2327 17.7968C95.4757 18.3958 96.3891 19.2122 97.0661 20.2701L100.435 18.1139ZM95.9693 14.1934L97.7408 10.6071C95.2389 9.37118 92.4959 8.79567 89.5943 8.79567V12.7957V16.7957C91.42 16.7957 92.927 17.152 94.1977 17.7797L95.9693 14.1934ZM89.5943 12.7957V8.79567C86.5403 8.79567 83.6739 9.42402 81.1244 10.8231L83.0488 14.3298L84.9732 17.8364C86.1511 17.1901 87.6483 16.7957 89.5943 16.7957V12.7957ZM83.0488 14.3298L81.1244 10.8231C78.586 12.2161 76.5966 14.2188 75.2287 16.768L78.7534 18.6593L82.278 20.5506C82.9101 19.3726 83.7843 18.4889 84.9732 17.8364L83.0488 14.3298ZM78.7534 18.6593L75.2287 16.768C73.8644 19.3106 73.2534 22.1649 73.2534 25.2048H77.2534H81.2534C81.2534 23.2447 81.6423 21.7353 82.278 20.5506L78.7534 18.6593ZM77.2534 25.2048V21.2048H67.1966V25.2048V29.2048H77.2534V25.2048ZM67.1966 25.2048H71.1966C71.1966 21.5895 72.0203 18.6193 73.5367 16.1507L70.1284 14.057L66.7201 11.9634C64.3274 15.8584 63.1966 20.32 63.1966 25.2048H67.1966ZM70.1284 14.057L73.5367 16.1507C75.0976 13.6097 77.2248 11.6427 80.0005 10.2178L78.1738 6.65931L76.3471 3.10078C72.3046 5.17592 69.0682 8.14076 66.7201 11.9634L70.1284 14.057ZM78.1738 6.65931L80.0192 10.2082C82.788 8.76841 86.0161 8.00022 89.7988 8.00022V4.00022V0.000221252C84.8997 0.000221252 80.3778 1.00476 76.3284 3.11044L78.1738 6.65931ZM89.7988 4.00022V8.00022C93.6444 8.00022 96.8523 8.76399 99.5337 10.1685L101.39 6.62522L103.246 3.08189C99.2454 0.986443 94.726 0.000221252 89.7988 0.000221252V4.00022ZM101.39 6.62522L99.5625 10.1835C102.332 11.6057 104.4 13.4938 105.879 15.8453L109.265 13.7161L112.651 11.5869C110.357 7.93841 107.175 5.09927 103.217 3.06695L101.39 6.62522ZM109.265 13.7161L105.886 15.8569C107.34 18.1524 108.094 20.7644 108.094 23.807H112.094H116.094C116.094 19.3497 114.962 15.2344 112.644 11.5753L109.265 13.7161ZM112.094 23.807H108.094C108.094 25.8814 107.706 27.9183 106.907 29.9414L110.628 31.4093L114.349 32.8772C115.506 29.9458 116.094 26.9145 116.094 23.807H112.094ZM110.628 31.4093L106.896 29.9711C106.133 31.9514 104.711 34.3639 102.468 37.2263L105.617 39.6934L108.766 42.1605C111.295 38.932 113.215 35.8218 114.361 32.8475L110.628 31.4093ZM105.617 39.6934L102.477 37.2148C100.217 40.078 97.0102 43.633 92.8116 47.8989L95.6625 50.7048L98.5133 53.5106C102.815 49.1402 106.244 45.3543 108.757 42.172L105.617 39.6934ZM95.6625 50.7048L92.7703 47.9416L78.8953 62.4643L81.7875 65.2275L84.6797 67.9907L98.5547 53.468L95.6625 50.7048ZM81.7875 65.2275H77.7875V65.7389H81.7875H85.7875V65.2275H81.7875ZM81.7875 65.7389V69.7389H113.219V65.7389V61.7389H81.7875V65.7389ZM113.219 65.7389H109.219V74.7729H113.219H117.219V65.7389H113.219ZM113.219 74.7729V70.7729H67.2647V74.7729V78.7729H113.219V74.7729Z" fill="black" mask="url(#path-1-outside-1_628_2)"/>
</svg>
