<svg width="121" height="80" viewBox="0 0 121 80" fill="none" xmlns="http://www.w3.org/2000/svg">
<mask id="path-1-outside-1_628_4" maskUnits="userSpaceOnUse" x="-0.419922" y="-0.227051" width="121" height="81" fill="black">
<rect fill="white" x="-0.419922" y="-0.227051" width="121" height="81"/>
<path d="M29.6028 75.932C24.2164 75.9093 19.6142 74.4889 15.796 71.6707C11.9778 68.8525 9.05735 64.7502 7.03462 59.3639C5.0119 53.9775 4.00053 47.4889 4.00053 39.8979C4.00053 32.3298 5.0119 25.8639 7.03462 20.5002C9.08008 15.1366 12.0119 11.0457 15.8301 8.2275C19.671 5.40931 24.2619 4.00022 29.6028 4.00022C34.9437 4.00022 39.5233 5.42067 43.3414 8.26158C47.1596 11.0798 50.0801 15.1707 52.1028 20.5343C54.1483 25.8752 55.171 32.3298 55.171 39.8979C55.171 47.5116 54.1596 54.0116 52.1369 59.3979C50.1142 64.7616 47.1937 68.8639 43.3755 71.7048C39.5574 74.5229 34.9664 75.932 29.6028 75.932ZM29.6028 66.8298C34.3301 66.8298 38.0233 64.5229 40.6824 59.9093C43.3642 55.2957 44.7051 48.6252 44.7051 39.8979C44.7051 34.1025 44.0914 29.2048 42.8642 25.2048C41.6596 21.182 39.921 18.1366 37.6483 16.0684C35.3983 13.9775 32.7164 12.932 29.6028 12.932C24.8983 12.932 21.2051 15.2502 18.5233 19.8866C15.8414 24.5229 14.4892 31.1934 14.4664 39.8979C14.4664 45.7161 15.0687 50.6366 16.2733 54.6593C17.5005 58.6593 19.2392 61.6934 21.4892 63.7616C23.7392 65.807 26.4437 66.8298 29.6028 66.8298ZM91.5716 75.7275C86.8897 75.7275 82.7079 74.9207 79.0261 73.307C75.367 71.6934 72.4693 69.4548 70.3329 66.5911C68.2193 63.7048 67.0829 60.3639 66.9238 56.5684H77.6284C77.7647 58.6366 78.4579 60.432 79.7079 61.9548C80.9806 63.4548 82.6397 64.6139 84.6852 65.432C86.7306 66.2502 89.0034 66.6593 91.5034 66.6593C94.2534 66.6593 96.6852 66.182 98.7988 65.2275C100.935 64.2729 102.606 62.9434 103.81 61.2389C105.015 59.5116 105.617 57.5229 105.617 55.2729C105.617 52.932 105.015 50.8752 103.81 49.1025C102.628 47.307 100.89 45.8979 98.5943 44.8752C96.3216 43.8525 93.5716 43.3411 90.3443 43.3411H84.4466V34.7502H90.3443C92.9352 34.7502 95.2079 34.2843 97.1625 33.3525C99.1397 32.4207 100.685 31.1252 101.799 29.4661C102.912 27.7843 103.469 25.8184 103.469 23.5684C103.469 21.4093 102.981 19.5343 102.003 17.9434C101.049 16.3298 99.6852 15.0684 97.9125 14.1593C96.1625 13.2502 94.0943 12.7957 91.7079 12.7957C89.4352 12.7957 87.3102 13.2161 85.3329 14.057C83.3784 14.8752 81.7875 16.057 80.5602 17.6025C79.3329 19.1252 78.6738 20.9548 78.5829 23.0911H68.3897C68.5034 19.3184 69.617 16.0002 71.7306 13.1366C73.867 10.2729 76.6852 8.03431 80.1852 6.42067C83.6852 4.80704 87.5716 4.00022 91.8443 4.00022C96.3216 4.00022 100.185 4.87522 103.435 6.62522C106.708 8.35249 109.231 10.6593 111.003 13.5457C112.799 16.432 113.685 19.5911 113.662 23.0229C113.685 26.932 112.594 30.2502 110.39 32.9775C108.208 35.7048 105.299 37.5343 101.662 38.4661V39.0116C106.299 39.7161 109.89 41.557 112.435 44.5343C115.003 47.5116 116.276 51.2048 116.253 55.6139C116.276 59.4548 115.208 62.8979 113.049 65.9434C110.912 68.9889 107.992 71.3866 104.287 73.1366C100.583 74.8639 96.3443 75.7275 91.5716 75.7275Z"/>
</mask>
<path d="M29.6028 75.932L29.5859 79.932L29.5944 79.932H29.6028V75.932ZM7.03462 59.3639L10.7793 57.9576V57.9576L7.03462 59.3639ZM7.03462 20.5002L3.29717 19.0749L3.29454 19.0818L3.29192 19.0888L7.03462 20.5002ZM15.8301 8.22749L13.4638 5.00247L13.4547 5.0092L15.8301 8.22749ZM43.3414 8.26158L40.9537 11.4707L40.9599 11.4753L40.966 11.4799L43.3414 8.26158ZM52.1028 20.5343L48.3601 21.9458L48.3637 21.9553L48.3674 21.9649L52.1028 20.5343ZM52.1369 59.3979L55.8796 60.8094L55.8816 60.8042L52.1369 59.3979ZM43.3755 71.7048L45.7509 74.9231L45.7571 74.9185L45.7633 74.9139L43.3755 71.7048ZM40.6824 59.9093L37.2242 57.8991L37.2204 57.9055L37.2168 57.9119L40.6824 59.9093ZM42.8642 25.2048L39.0323 26.3522L39.0361 26.3651L39.0401 26.3781L42.8642 25.2048ZM37.6483 16.0684L34.9253 18.9985L34.9406 19.0128L34.9561 19.0268L37.6483 16.0684ZM18.5233 19.8866L15.0608 17.8838V17.8838L18.5233 19.8866ZM14.4664 39.8979L10.4664 39.8875V39.8979H14.4664ZM16.2733 54.6593L12.4414 55.8067L12.4452 55.8197L12.4492 55.8326L16.2733 54.6593ZM21.4892 63.7616L18.7822 66.7065L18.7903 66.7139L18.7985 66.7213L21.4892 63.7616ZM29.6028 75.932L29.6197 71.9321C24.9629 71.9124 21.216 70.6996 18.1714 68.4524L15.796 71.6707L13.4206 74.889C18.0124 78.2781 23.4699 79.9062 29.5859 79.932L29.6028 75.932ZM15.796 71.6707L18.1714 68.4524C15.0962 66.1826 12.5885 62.7754 10.7793 57.9576L7.03462 59.3639L3.28996 60.7701C5.5262 66.725 8.85941 71.5224 13.4206 74.889L15.796 71.6707ZM7.03462 59.3639L10.7793 57.9576C8.96975 53.139 8.00053 47.1534 8.00053 39.8979H4.00053H0.000532866C0.000532866 47.8243 1.05404 54.816 3.28996 60.7701L7.03462 59.3639ZM4.00053 39.8979H8.00053C8.00053 32.6661 8.96953 26.7054 10.7773 21.9117L7.03462 20.5002L3.29192 19.0888C1.05427 25.0223 0.000532866 31.9934 0.000532866 39.8979H4.00053ZM7.03462 20.5002L10.7721 21.9255C12.6023 17.1263 15.1221 13.7216 18.2055 11.4458L15.8301 8.22749L13.4547 5.0092C8.90166 8.36975 5.55789 13.1468 3.29717 19.0749L7.03462 20.5002ZM15.8301 8.22749L18.1964 11.4525C21.2689 9.19813 25.0051 8.00022 29.6028 8.00022V4.00022V0.000221252C23.5187 0.000221252 18.0731 1.62049 13.4638 5.00248L15.8301 8.22749ZM29.6028 4.00022V8.00022C34.1937 8.00022 37.9092 9.20547 40.9537 11.4707L43.3414 8.26158L45.7292 5.05244C41.1373 1.63588 35.6937 0.000221252 29.6028 0.000221252V4.00022ZM43.3414 8.26158L40.966 11.4799C44.0453 13.7527 46.5523 17.1521 48.3601 21.9458L52.1028 20.5343L55.8455 19.1229C53.6078 13.1892 50.274 8.40687 45.7169 5.04329L43.3414 8.26158ZM52.1028 20.5343L48.3674 21.9649C50.1915 26.7279 51.171 32.6696 51.171 39.8979H55.171H59.171C59.171 31.99 58.105 25.0226 55.8382 19.1037L52.1028 20.5343ZM55.171 39.8979H51.171C51.171 47.1777 50.2013 53.1742 48.3922 57.9917L52.1369 59.3979L55.8816 60.8042C58.1179 54.8489 59.171 47.8454 59.171 39.8979H55.171ZM52.1369 59.3979L48.3942 57.9865C46.5859 62.7815 44.0759 66.1979 40.9878 68.4956L43.3755 71.7048L45.7633 74.9139C50.3115 71.5298 53.6424 66.7416 55.8796 60.8094L52.1369 59.3979ZM43.3755 71.7048L41.0001 68.4865C37.9579 70.7319 34.2278 71.932 29.6028 71.932V75.932V79.932C35.7051 79.932 41.1568 78.314 45.7509 74.9231L43.3755 71.7048ZM29.6028 66.8298V70.8298C35.9655 70.8298 40.8835 67.5707 44.1479 61.9067L40.6824 59.9093L37.2168 57.9119C35.163 61.4752 32.6947 62.8298 29.6028 62.8298V66.8298ZM40.6824 59.9093L44.1406 61.9195C47.3356 56.423 48.7051 48.93 48.7051 39.8979H44.7051H40.7051C40.7051 48.3204 39.3928 54.1684 37.2242 57.8991L40.6824 59.9093ZM44.7051 39.8979H48.7051C48.7051 33.8459 48.0673 28.5264 46.6882 24.0315L42.8642 25.2048L39.0401 26.3781C40.1155 29.8831 40.7051 34.3591 40.7051 39.8979H44.7051ZM42.8642 25.2048L46.6961 24.0574C45.3566 19.584 43.3127 15.8148 40.3404 13.11L37.6483 16.0684L34.9561 19.0268C36.5293 20.4584 37.9626 22.78 39.0323 26.3522L42.8642 25.2048ZM37.6483 16.0684L40.3712 13.1383C37.37 10.3493 33.7113 8.93204 29.6028 8.93204V12.932V16.932C31.7216 16.932 33.4265 17.6057 34.9253 18.9985L37.6483 16.0684ZM29.6028 12.932V8.93204C23.248 8.93204 18.3387 12.2168 15.0608 17.8838L18.5233 19.8866L21.9857 21.8894C24.0714 18.2836 26.5486 16.932 29.6028 16.932V12.932ZM18.5233 19.8866L15.0608 17.8838C11.8741 23.393 10.49 30.8752 10.4665 39.8875L14.4664 39.8979L18.4664 39.9084C18.4884 31.5116 19.8088 25.6529 21.9857 21.8894L18.5233 19.8866ZM14.4664 39.8979H10.4664C10.4664 45.9668 11.0917 51.2994 12.4414 55.8067L16.2733 54.6593L20.1052 53.5119C19.0457 49.9738 18.4664 45.4654 18.4664 39.8979H14.4664ZM16.2733 54.6593L12.4492 55.8326C13.8111 60.2715 15.8507 64.0119 18.7822 66.7065L21.4892 63.7616L24.1961 60.8167C22.6276 59.3749 21.1899 57.0472 20.0973 53.486L16.2733 54.6593ZM21.4892 63.7616L18.7985 66.7213C21.8157 69.4643 25.4912 70.8298 29.6028 70.8298V66.8298V62.8298C27.3962 62.8298 25.6627 62.1498 24.1799 60.8018L21.4892 63.7616ZM79.0261 73.307L77.4121 76.967L77.4205 76.9706L79.0261 73.307ZM70.3329 66.5911L67.1057 68.9544L67.1162 68.9687L67.1268 68.983L70.3329 66.5911ZM66.9238 56.5684V52.5684H62.7526L62.9273 56.7359L66.9238 56.5684ZM77.6284 56.5684L81.6197 56.3052L81.3733 52.5684H77.6284V56.5684ZM79.7079 61.9548L76.6162 64.4927L76.6368 64.5179L76.6579 64.5427L79.7079 61.9548ZM84.6852 65.432L86.1708 61.7181H86.1708L84.6852 65.432ZM98.7988 65.2275L97.1671 61.5755L97.1598 61.5787L97.1525 61.582L98.7988 65.2275ZM103.81 61.2389L107.077 63.5473L107.084 63.5371L107.091 63.5269L103.81 61.2389ZM103.81 49.1025L100.469 51.3017L100.485 51.3263L100.502 51.3506L103.81 49.1025ZM98.5943 44.8752L96.9528 48.5229L96.9596 48.526L96.9664 48.529L98.5943 44.8752ZM84.4466 43.3411H80.4466V47.3411H84.4466V43.3411ZM84.4466 34.7502V30.7502H80.4466V34.7502H84.4466ZM97.1625 33.3525L95.4573 29.7342L95.4492 29.738L95.4411 29.7418L97.1625 33.3525ZM101.799 29.4661L105.12 31.6954L105.127 31.685L105.134 31.6745L101.799 29.4661ZM102.003 17.9434L98.5606 19.98L98.5776 20.0087L98.5951 20.0371L102.003 17.9434ZM97.9125 14.1593L96.0685 17.7089L96.0778 17.7138L96.0872 17.7186L97.9125 14.1593ZM85.3329 14.057L86.8775 17.7468L86.8879 17.7424L86.8984 17.738L85.3329 14.057ZM80.5602 17.6025L83.6746 20.1126L83.6836 20.1013L83.6926 20.09L80.5602 17.6025ZM78.5829 23.0911V27.0911H82.4163L82.5793 23.2612L78.5829 23.0911ZM68.3897 23.0911L64.3915 22.9707L64.2674 27.0911H68.3897V23.0911ZM71.7306 13.1366L68.5246 10.7447L68.5184 10.7529L68.5124 10.7612L71.7306 13.1366ZM80.1852 6.42067L81.8599 10.0532V10.0532L80.1852 6.42067ZM103.435 6.62522L101.539 10.1471L101.553 10.155L101.568 10.1628L103.435 6.62522ZM111.003 13.5457L107.595 15.6391L107.601 15.6488L107.607 15.6585L111.003 13.5457ZM113.662 23.0229L109.663 22.9965L109.662 23.0213L109.663 23.0462L113.662 23.0229ZM110.39 32.9775L107.279 30.4629L107.273 30.4708L107.266 30.4787L110.39 32.9775ZM101.662 38.4661L100.67 34.5913L97.6625 35.3619V38.4661H101.662ZM101.662 39.0116H97.6625V42.4497L101.062 42.9662L101.662 39.0116ZM112.435 44.5343L109.395 47.1337L109.401 47.1403L109.406 47.147L112.435 44.5343ZM116.253 55.6139L112.253 55.5932L112.253 55.6154L112.253 55.6375L116.253 55.6139ZM113.049 65.9434L109.786 63.63L109.78 63.6381L109.774 63.6463L113.049 65.9434ZM104.287 73.1366L105.978 76.7619L105.987 76.7576L105.996 76.7533L104.287 73.1366ZM91.5716 75.7275V71.7275C87.3523 71.7275 83.7308 71.0017 80.6317 69.6434L79.0261 73.307L77.4205 76.9706C81.685 78.8397 86.4272 79.7275 91.5716 79.7275V75.7275ZM79.0261 73.307L80.6401 69.6471C77.5353 68.2779 75.2154 66.4464 73.539 64.1993L70.3329 66.5911L67.1268 68.983C69.7231 72.4631 73.1987 75.1089 77.4121 76.967L79.0261 73.307ZM70.3329 66.5911L73.5602 64.2279C71.9444 62.0214 71.0484 59.4559 70.9203 56.4009L66.9238 56.5684L62.9273 56.7359C63.1175 61.2718 64.4942 65.3881 67.1057 68.9544L70.3329 66.5911ZM66.9238 56.5684V60.5684H77.6284V56.5684V52.5684H66.9238V56.5684ZM77.6284 56.5684L73.637 56.8316C73.8253 59.6872 74.8075 62.2895 76.6162 64.4927L79.7079 61.9548L82.7996 59.4168C82.1083 58.5746 81.7041 57.5859 81.6197 56.3052L77.6284 56.5684ZM79.7079 61.9548L76.6579 64.5427C78.401 66.5971 80.6223 68.115 83.1996 69.146L84.6852 65.432L86.1708 61.7181C84.6571 61.1127 83.5603 60.3124 82.758 59.3669L79.7079 61.9548ZM84.6852 65.432L83.1996 69.1459C85.7769 70.1769 88.5626 70.6593 91.5034 70.6593V66.6593V62.6593C89.4441 62.6593 87.6843 62.3236 86.1708 61.7181L84.6852 65.432ZM91.5034 66.6593V70.6593C94.717 70.6593 97.727 70.1005 100.445 68.873L98.7988 65.2275L97.1525 61.582C95.6434 62.2635 93.7897 62.6593 91.5034 62.6593V66.6593ZM98.7988 65.2275L100.431 68.8795C103.141 67.6683 105.409 65.907 107.077 63.5473L103.81 61.2389L100.544 58.9304C99.802 59.9798 98.729 60.8776 97.1671 61.5755L98.7988 65.2275ZM103.81 61.2389L107.091 63.5269C108.796 61.0815 109.617 58.2821 109.617 55.2729H105.617H101.617C101.617 56.7638 101.233 57.9416 100.529 58.9508L103.81 61.2389ZM105.617 55.2729H109.617C109.617 52.2076 108.815 49.3515 107.119 46.8544L103.81 49.1025L100.502 51.3506C101.214 52.399 101.617 53.6564 101.617 55.2729H105.617ZM103.81 49.1025L107.151 46.9033C105.482 44.3674 103.096 42.5017 100.222 41.2215L98.5943 44.8752L96.9664 48.529C98.6838 49.2942 99.7746 50.2467 100.469 51.3017L103.81 49.1025ZM98.5943 44.8752L100.236 41.2275C97.3186 39.9148 93.9774 39.3411 90.3443 39.3411V43.3411V47.3411C93.1657 47.3411 95.3245 47.7902 96.9528 48.5229L98.5943 44.8752ZM90.3443 43.3411V39.3411H84.4466V43.3411V47.3411H90.3443V43.3411ZM84.4466 43.3411H88.4466V34.7502H84.4466H80.4466V43.3411H84.4466ZM84.4466 34.7502V38.7502H90.3443V34.7502V30.7502H84.4466V34.7502ZM90.3443 34.7502V38.7502C93.4152 38.7502 96.2962 38.1968 98.8838 36.9632L97.1625 33.3525L95.4411 29.7418C94.1196 30.3718 92.4552 30.7502 90.3443 30.7502V34.7502ZM97.1625 33.3525L98.8677 36.9708C101.436 35.7605 103.566 34.0108 105.12 31.6954L101.799 29.4661L98.4776 27.2368C97.8045 28.2397 96.8436 29.0808 95.4573 29.7342L97.1625 33.3525ZM101.799 29.4661L105.134 31.6745C106.73 29.2636 107.469 26.5098 107.469 23.5684H103.469H99.4693C99.4693 25.127 99.0946 26.305 98.4637 27.2577L101.799 29.4661ZM103.469 23.5684H107.469C107.469 20.7878 106.833 18.1637 105.412 15.8497L102.003 17.9434L98.5951 20.0371C99.1282 20.9049 99.4693 22.0308 99.4693 23.5684H103.469ZM102.003 17.9434L105.446 15.9069C104.083 13.6018 102.139 11.8312 99.7377 10.6L97.9125 14.1593L96.0872 17.7186C97.2318 18.3056 98.0151 19.0577 98.5606 19.98L102.003 17.9434ZM97.9125 14.1593L99.7564 10.6097C97.3291 9.34874 94.6027 8.79567 91.7079 8.79567V12.7957V16.7957C93.5859 16.7957 94.9958 17.1517 96.0685 17.7089L97.9125 14.1593ZM91.7079 12.7957V8.79567C88.9288 8.79567 86.268 9.31264 83.7675 10.3761L85.3329 14.057L86.8984 17.738C88.3524 17.1196 89.9416 16.7957 91.7079 16.7957V12.7957ZM85.3329 14.057L83.7884 10.3673C81.2588 11.4261 79.1052 13.0026 77.4277 15.115L80.5602 17.6025L83.6926 20.09C84.4697 19.1115 85.4979 18.3243 86.8775 17.7468L85.3329 14.057ZM80.5602 17.6025L77.4458 15.0924C75.6315 17.3435 74.7102 20.0146 74.5865 22.9211L78.5829 23.0911L82.5793 23.2612C82.6374 21.8949 83.0344 20.9069 83.6746 20.1126L80.5602 17.6025ZM78.5829 23.0911V19.0911H68.3897V23.0911V27.0911H78.5829V23.0911ZM68.3897 23.0911L72.3879 23.2116C72.4786 20.2004 73.3486 17.6802 74.9489 15.512L71.7306 13.1366L68.5124 10.7612C65.8854 14.3203 64.5281 18.4365 64.3915 22.9707L68.3897 23.0911ZM71.7306 13.1366L74.9367 15.5284C76.643 13.2413 78.9168 11.4101 81.8599 10.0532L80.1852 6.42067L78.5105 2.78815C74.4535 4.65854 71.091 7.30462 68.5246 10.7447L71.7306 13.1366ZM80.1852 6.42067L81.8599 10.0532C84.7802 8.70684 88.0865 8.00022 91.8443 8.00022V4.00022V0.000221252C87.0566 0.000221252 82.5902 0.907234 78.5105 2.78815L80.1852 6.42067ZM91.8443 4.00022V8.00022C95.7994 8.00022 98.9834 8.77114 101.539 10.1471L103.435 6.62522L105.332 3.10333C101.387 0.979294 96.8437 0.000221252 91.8443 0.000221252V4.00022ZM103.435 6.62522L101.568 10.1628C104.267 11.5874 106.232 13.4193 107.595 15.6391L111.003 13.5457L114.412 11.4523C112.23 7.89937 109.148 5.11761 105.302 3.08768L103.435 6.62522ZM111.003 13.5457L107.607 15.6585C108.999 17.8965 109.68 20.3127 109.663 22.9965L113.662 23.0229L117.662 23.0494C117.69 18.8695 116.599 14.9675 114.4 11.4329L111.003 13.5457ZM113.662 23.0229L109.663 23.0462C109.681 26.1447 108.836 28.5366 107.279 30.4629L110.39 32.9775L113.501 35.4921C116.352 31.9639 117.69 27.7194 117.662 22.9997L113.662 23.0229ZM110.39 32.9775L107.266 30.4787C105.668 32.4764 103.532 33.8578 100.67 34.5913L101.662 38.4661L102.655 42.3409C107.066 41.2108 110.748 38.9332 113.513 35.4763L110.39 32.9775ZM101.662 38.4661H97.6625V39.0116H101.662H105.662V38.4661H101.662ZM101.662 39.0116L101.062 42.9662C104.945 43.5563 107.591 45.0243 109.395 47.1337L112.435 44.5343L115.475 41.935C112.188 38.0898 107.653 35.876 102.263 35.057L101.662 39.0116ZM112.435 44.5343L109.406 47.147C111.266 49.3028 112.272 52.0248 112.253 55.5932L116.253 55.6139L120.253 55.6345C120.28 50.3847 118.741 45.7204 115.464 41.9216L112.435 44.5343ZM116.253 55.6139L112.253 55.6375C112.271 58.6674 111.446 61.2881 109.786 63.63L113.049 65.9434L116.312 68.2568C118.97 64.5078 120.281 60.2422 120.253 55.5902L116.253 55.6139ZM113.049 65.9434L109.774 63.6463C108.076 66.0671 105.721 68.0355 102.579 69.5198L104.287 73.1366L105.996 76.7533C110.263 74.7376 113.749 71.9106 116.323 68.2405L113.049 65.9434ZM104.287 73.1366L102.597 69.5113C99.5035 70.9537 95.8575 71.7275 91.5716 71.7275V75.7275V79.7275C96.8311 79.7275 101.662 78.774 105.978 76.7619L104.287 73.1366Z" fill="black" mask="url(#path-1-outside-1_628_4)"/>
</svg>
