<svg width="123" height="80" viewBox="0 0 123 80" fill="none" xmlns="http://www.w3.org/2000/svg">
<mask id="path-1-outside-1_628_6" maskUnits="userSpaceOnUse" x="-0.419922" y="-0.227051" width="123" height="81" fill="black">
<rect fill="white" x="-0.419922" y="-0.227051" width="123" height="81"/>
<path d="M29.6028 75.932C24.2164 75.9093 19.6142 74.4889 15.796 71.6707C11.9778 68.8525 9.05735 64.7502 7.03462 59.3639C5.0119 53.9775 4.00053 47.4889 4.00053 39.8979C4.00053 32.3298 5.0119 25.8639 7.03462 20.5002C9.08008 15.1366 12.0119 11.0457 15.8301 8.2275C19.671 5.40931 24.2619 4.00022 29.6028 4.00022C34.9437 4.00022 39.5233 5.42067 43.3414 8.26158C47.1596 11.0798 50.0801 15.1707 52.1028 20.5343C54.1483 25.8752 55.171 32.3298 55.171 39.8979C55.171 47.5116 54.1596 54.0116 52.1369 59.3979C50.1142 64.7616 47.1937 68.8639 43.3755 71.7048C39.5574 74.5229 34.9664 75.932 29.6028 75.932ZM29.6028 66.8298C34.3301 66.8298 38.0233 64.5229 40.6824 59.9093C43.3642 55.2957 44.7051 48.6252 44.7051 39.8979C44.7051 34.1025 44.0914 29.2048 42.8642 25.2048C41.6596 21.182 39.921 18.1366 37.6483 16.0684C35.3983 13.9775 32.7164 12.932 29.6028 12.932C24.8983 12.932 21.2051 15.2502 18.5233 19.8866C15.8414 24.5229 14.4892 31.1934 14.4664 39.8979C14.4664 45.7161 15.0687 50.6366 16.2733 54.6593C17.5005 58.6593 19.2392 61.6934 21.4892 63.7616C23.7392 65.807 26.4437 66.8298 29.6028 66.8298ZM65.7988 61.1366V52.6139L95.9693 4.95477H102.685V17.5002H98.4238L76.8443 51.6593V52.2048H118.197V61.1366H65.7988ZM98.9011 74.7729V58.5457L98.9693 54.6593V4.95477H108.958V74.7729H98.9011Z"/>
</mask>
<path d="M29.6028 75.932L29.5859 79.932L29.5944 79.932H29.6028V75.932ZM7.03462 59.3639L10.7793 57.9576V57.9576L7.03462 59.3639ZM7.03462 20.5002L3.29717 19.0749L3.29454 19.0818L3.29192 19.0888L7.03462 20.5002ZM15.8301 8.22749L13.4638 5.00247L13.4547 5.0092L15.8301 8.22749ZM43.3414 8.26158L40.9537 11.4707L40.9599 11.4753L40.966 11.4799L43.3414 8.26158ZM52.1028 20.5343L48.3601 21.9458L48.3637 21.9553L48.3674 21.9649L52.1028 20.5343ZM52.1369 59.3979L55.8796 60.8094L55.8816 60.8042L52.1369 59.3979ZM43.3755 71.7048L45.7509 74.9231L45.7571 74.9185L45.7633 74.9139L43.3755 71.7048ZM40.6824 59.9093L37.2242 57.8991L37.2204 57.9055L37.2168 57.9119L40.6824 59.9093ZM42.8642 25.2048L39.0323 26.3522L39.0361 26.3651L39.0401 26.3781L42.8642 25.2048ZM37.6483 16.0684L34.9253 18.9985L34.9406 19.0128L34.9561 19.0268L37.6483 16.0684ZM18.5233 19.8866L15.0608 17.8838V17.8838L18.5233 19.8866ZM14.4664 39.8979L10.4664 39.8875V39.8979H14.4664ZM16.2733 54.6593L12.4414 55.8067L12.4452 55.8197L12.4492 55.8326L16.2733 54.6593ZM21.4892 63.7616L18.7822 66.7065L18.7903 66.7139L18.7985 66.7213L21.4892 63.7616ZM29.6028 75.932L29.6197 71.9321C24.9629 71.9124 21.216 70.6996 18.1714 68.4524L15.796 71.6707L13.4206 74.889C18.0124 78.2781 23.4699 79.9062 29.5859 79.932L29.6028 75.932ZM15.796 71.6707L18.1714 68.4524C15.0962 66.1826 12.5885 62.7754 10.7793 57.9576L7.03462 59.3639L3.28996 60.7701C5.5262 66.725 8.85941 71.5224 13.4206 74.889L15.796 71.6707ZM7.03462 59.3639L10.7793 57.9576C8.96975 53.139 8.00053 47.1534 8.00053 39.8979H4.00053H0.000532866C0.000532866 47.8243 1.05404 54.816 3.28996 60.7701L7.03462 59.3639ZM4.00053 39.8979H8.00053C8.00053 32.6661 8.96953 26.7054 10.7773 21.9117L7.03462 20.5002L3.29192 19.0888C1.05427 25.0223 0.000532866 31.9934 0.000532866 39.8979H4.00053ZM7.03462 20.5002L10.7721 21.9255C12.6023 17.1263 15.1221 13.7216 18.2055 11.4458L15.8301 8.22749L13.4547 5.0092C8.90166 8.36975 5.55789 13.1468 3.29717 19.0749L7.03462 20.5002ZM15.8301 8.22749L18.1964 11.4525C21.2689 9.19813 25.0051 8.00022 29.6028 8.00022V4.00022V0.000221252C23.5187 0.000221252 18.0731 1.62049 13.4638 5.00248L15.8301 8.22749ZM29.6028 4.00022V8.00022C34.1937 8.00022 37.9092 9.20547 40.9537 11.4707L43.3414 8.26158L45.7292 5.05244C41.1373 1.63588 35.6937 0.000221252 29.6028 0.000221252V4.00022ZM43.3414 8.26158L40.966 11.4799C44.0453 13.7527 46.5523 17.1521 48.3601 21.9458L52.1028 20.5343L55.8455 19.1229C53.6078 13.1892 50.274 8.40687 45.7169 5.04329L43.3414 8.26158ZM52.1028 20.5343L48.3674 21.9649C50.1915 26.7279 51.171 32.6696 51.171 39.8979H55.171H59.171C59.171 31.99 58.105 25.0226 55.8382 19.1037L52.1028 20.5343ZM55.171 39.8979H51.171C51.171 47.1777 50.2013 53.1742 48.3922 57.9917L52.1369 59.3979L55.8816 60.8042C58.1179 54.8489 59.171 47.8454 59.171 39.8979H55.171ZM52.1369 59.3979L48.3942 57.9865C46.5859 62.7815 44.0759 66.1979 40.9878 68.4956L43.3755 71.7048L45.7633 74.9139C50.3115 71.5298 53.6424 66.7416 55.8796 60.8094L52.1369 59.3979ZM43.3755 71.7048L41.0001 68.4865C37.9579 70.7319 34.2278 71.932 29.6028 71.932V75.932V79.932C35.7051 79.932 41.1568 78.314 45.7509 74.9231L43.3755 71.7048ZM29.6028 66.8298V70.8298C35.9655 70.8298 40.8835 67.5707 44.1479 61.9067L40.6824 59.9093L37.2168 57.9119C35.163 61.4752 32.6947 62.8298 29.6028 62.8298V66.8298ZM40.6824 59.9093L44.1406 61.9195C47.3356 56.423 48.7051 48.93 48.7051 39.8979H44.7051H40.7051C40.7051 48.3204 39.3928 54.1684 37.2242 57.8991L40.6824 59.9093ZM44.7051 39.8979H48.7051C48.7051 33.8459 48.0673 28.5264 46.6882 24.0315L42.8642 25.2048L39.0401 26.3781C40.1155 29.8831 40.7051 34.3591 40.7051 39.8979H44.7051ZM42.8642 25.2048L46.6961 24.0574C45.3566 19.584 43.3127 15.8148 40.3404 13.11L37.6483 16.0684L34.9561 19.0268C36.5293 20.4584 37.9626 22.78 39.0323 26.3522L42.8642 25.2048ZM37.6483 16.0684L40.3712 13.1383C37.37 10.3493 33.7113 8.93204 29.6028 8.93204V12.932V16.932C31.7216 16.932 33.4265 17.6057 34.9253 18.9985L37.6483 16.0684ZM29.6028 12.932V8.93204C23.248 8.93204 18.3387 12.2168 15.0608 17.8838L18.5233 19.8866L21.9857 21.8894C24.0714 18.2836 26.5486 16.932 29.6028 16.932V12.932ZM18.5233 19.8866L15.0608 17.8838C11.8741 23.393 10.49 30.8752 10.4665 39.8875L14.4664 39.8979L18.4664 39.9084C18.4884 31.5116 19.8088 25.6529 21.9857 21.8894L18.5233 19.8866ZM14.4664 39.8979H10.4664C10.4664 45.9668 11.0917 51.2994 12.4414 55.8067L16.2733 54.6593L20.1052 53.5119C19.0457 49.9738 18.4664 45.4654 18.4664 39.8979H14.4664ZM16.2733 54.6593L12.4492 55.8326C13.8111 60.2715 15.8507 64.0119 18.7822 66.7065L21.4892 63.7616L24.1961 60.8167C22.6276 59.3749 21.1899 57.0472 20.0973 53.486L16.2733 54.6593ZM21.4892 63.7616L18.7985 66.7213C21.8157 69.4643 25.4912 70.8298 29.6028 70.8298V66.8298V62.8298C27.3962 62.8298 25.6627 62.1498 24.1799 60.8018L21.4892 63.7616ZM65.7988 61.1366H61.7988V65.1366H65.7988V61.1366ZM65.7988 52.6139L62.4191 50.4743L61.7988 51.4542V52.6139H65.7988ZM95.9693 4.95477V0.954765H93.7673L92.5896 2.81525L95.9693 4.95477ZM102.685 4.95477H106.685V0.954765H102.685V4.95477ZM102.685 17.5002V21.5002H106.685V17.5002H102.685ZM98.4238 17.5002V13.5002H96.2195L95.0421 15.3639L98.4238 17.5002ZM76.8443 51.6593L73.4626 49.523L72.8443 50.5017V51.6593H76.8443ZM76.8443 52.2048H72.8443V56.2048H76.8443V52.2048ZM118.197 52.2048H122.197V48.2048H118.197V52.2048ZM118.197 61.1366V65.1366H122.197V61.1366H118.197ZM98.9011 74.7729H94.9011V78.7729H98.9011V74.7729ZM98.9011 58.5457L94.9017 58.4755L94.9011 58.5106V58.5457H98.9011ZM98.9693 54.6593L102.969 54.7295L102.969 54.6944V54.6593H98.9693ZM98.9693 4.95477V0.954765H94.9693V4.95477H98.9693ZM108.958 4.95477H112.958V0.954765H108.958V4.95477ZM108.958 74.7729V78.7729H112.958V74.7729H108.958ZM65.7988 61.1366H69.7988V52.6139H65.7988H61.7988V61.1366H65.7988ZM65.7988 52.6139L69.1785 54.7534L99.349 7.09428L95.9693 4.95477L92.5896 2.81525L62.4191 50.4743L65.7988 52.6139ZM95.9693 4.95477V8.95477H102.685V4.95477V0.954765H95.9693V4.95477ZM102.685 4.95477H98.6852V17.5002H102.685H106.685V4.95477H102.685ZM102.685 17.5002V13.5002H98.4238V17.5002V21.5002H102.685V17.5002ZM98.4238 17.5002L95.0421 15.3639L73.4626 49.523L76.8443 51.6593L80.226 53.7957L101.806 19.6366L98.4238 17.5002ZM76.8443 51.6593H72.8443V52.2048H76.8443H80.8443V51.6593H76.8443ZM76.8443 52.2048V56.2048H118.197V52.2048V48.2048H76.8443V52.2048ZM118.197 52.2048H114.197V61.1366H118.197H122.197V52.2048H118.197ZM118.197 61.1366V57.1366H65.7988V61.1366V65.1366H118.197V61.1366ZM98.9011 74.7729H102.901V58.5457H98.9011H94.9011V74.7729H98.9011ZM98.9011 58.5457L102.9 58.6158L102.969 54.7295L98.9693 54.6593L94.9699 54.5891L94.9017 58.4755L98.9011 58.5457ZM98.9693 54.6593H102.969V4.95477H98.9693H94.9693V54.6593H98.9693ZM98.9693 4.95477V8.95477H108.958V4.95477V0.954765H98.9693V4.95477ZM108.958 4.95477H104.958V74.7729H108.958H112.958V4.95477H108.958ZM108.958 74.7729V70.7729H98.9011V74.7729V78.7729H108.958V74.7729Z" fill="black" mask="url(#path-1-outside-1_628_6)"/>
</svg>
